<svg xmlns="http://www.w3.org/2000/svg" width="168.784" height="128.486" viewBox="0 0 168.784 128.486"><g transform="translate(-0.186 -0.22)"><path d="M33.191,9.164,30.924,6.888a.706.706,0,0,0-1.006,0l-.715.718a.713.713,0,0,0,0,1.01l.294.3-.321.323a.714.714,0,0,0-.088.9l-1.22,1.225A15.46,15.46,0,0,0,17.6,6.7V5.843a1.154,1.154,0,0,0,1.151-1.156V3.951h.482A1.154,1.154,0,0,0,20.386,2.8V1.156A1.154,1.154,0,0,0,19.235,0H14.054A1.154,1.154,0,0,0,12.9,1.156V2.8a1.154,1.154,0,0,0,1.151,1.156h.673v.737a1.152,1.152,0,0,0,.929,1.133v.9A15.451,15.451,0,0,0,5.608,11.437l-1.3-1.3a.714.714,0,0,0-.088-.9L3.9,8.911l.294-.3a.713.713,0,0,0,0-1.01l-.715-.718a.706.706,0,0,0-1.006,0L.209,9.164a.713.713,0,0,0,0,1.01l.715.718a.706.706,0,0,0,1.006,0l.21-.211L2.461,11a.706.706,0,0,0,1.006,0h0L4.8,12.339A15.544,15.544,0,1,0,28.4,11.932l.3.3L29.937,11h0a.706.706,0,0,0,1.006,0l.321-.323.21.211a.706.706,0,0,0,1.006,0l.715-.718a.713.713,0,0,0,0-1.01Z" transform="translate(1.056 33.586)" fill="#87888a" opacity="0.4"/><g transform="translate(86.794 11.518)"><path d="M53.778,89.4,82.118,23.22,28.34,0,0,66.182Z" transform="translate(0.057 0.119)" fill="#fff"/><path d="M.3.942,36.23,16.457a.488.488,0,0,0,.642-.257h0a.491.491,0,0,0-.256-.645L.682.04A.488.488,0,0,0,.04.3h0A.491.491,0,0,0,.3.942Z" transform="translate(31.798 15.229)" fill="#ececf0"/><path d="M.3.942,23.608,11.009a.488.488,0,0,0,.642-.257h0a.491.491,0,0,0-.256-.645L.682.04A.488.488,0,0,0,.04.3h0A.491.491,0,0,0,.3.942Z" transform="translate(31.095 16.868)" fill="#ececf0"/><path d="M.3.942,17.816,8.506a.488.488,0,0,0,.642-.257h0A.491.491,0,0,0,18.2,7.6L.682.04A.488.488,0,0,0,.04.3h0A.491.491,0,0,0,.3.942Z" transform="translate(30.38 18.534)" fill="#ececf0"/><path d="M.3.942,36.23,16.457a.488.488,0,0,0,.642-.257h0a.491.491,0,0,0-.256-.645L.682.04A.488.488,0,0,0,.04.3h0A.491.491,0,0,0,.3.942Z" transform="translate(28.323 23.341)" fill="#ececf0"/><path d="M.3.942,23.608,11.009a.488.488,0,0,0,.642-.257h0a.491.491,0,0,0-.256-.645L.682.04A.488.488,0,0,0,.04.3h0A.491.491,0,0,0,.3.942Z" transform="translate(27.619 24.984)" fill="#ececf0"/><path d="M.3.942,17.816,8.506a.488.488,0,0,0,.642-.257h0A.491.491,0,0,0,18.2,7.6L.682.04A.488.488,0,0,0,.04.3h0A.491.491,0,0,0,.3.942Z" transform="translate(26.908 26.65)" fill="#ececf0"/><path d="M.3.942,36.23,16.457a.488.488,0,0,0,.642-.257h0a.491.491,0,0,0-.256-.645L.682.04A.488.488,0,0,0,.04.3h0A.491.491,0,0,0,.3.942Z" transform="translate(24.289 32.763)" fill="#ececf0"/><path d="M.3.942,23.608,11.009a.488.488,0,0,0,.642-.257h0a.491.491,0,0,0-.256-.645L.682.04A.488.488,0,0,0,.04.3h0A.491.491,0,0,0,.3.942Z" transform="translate(23.585 34.406)" fill="#ececf0"/><path d="M.3.942,17.816,8.506a.488.488,0,0,0,.642-.257h0A.491.491,0,0,0,18.2,7.6L.682.04A.488.488,0,0,0,.04.3h0A.491.491,0,0,0,.3.942Z" transform="translate(22.87 36.072)" fill="#ececf0"/><path d="M.3.942,36.23,16.457a.488.488,0,0,0,.642-.257h0a.491.491,0,0,0-.256-.645L.682.04A.488.488,0,0,0,.04.3h0A.491.491,0,0,0,.3.942Z" transform="translate(15.503 53.284)" fill="#ececf0"/><path d="M.3.942,23.608,11.009a.488.488,0,0,0,.642-.257h0a.491.491,0,0,0-.256-.645L.682.04A.488.488,0,0,0,.04.3h0A.491.491,0,0,0,.3.942Z" transform="translate(14.799 54.923)" fill="#ececf0"/><path d="M.3.942,17.816,8.506a.488.488,0,0,0,.642-.257h0A.491.491,0,0,0,18.2,7.6L.682.04A.488.488,0,0,0,.04.3h0A.491.491,0,0,0,.3.942Z" transform="translate(14.084 56.589)" fill="#ececf0"/><path d="M.3.942,36.23,16.457a.488.488,0,0,0,.642-.257h0a.491.491,0,0,0-.256-.645L.682.04A.488.488,0,0,0,.04.3h0A.491.491,0,0,0,.3.942Z" transform="translate(20.844 40.806)" fill="#ececf0"/><path d="M.3.942,23.608,11.009a.488.488,0,0,0,.642-.257h0a.491.491,0,0,0-.256-.645L.682.04A.488.488,0,0,0,.04.3h0A.491.491,0,0,0,.3.942Z" transform="translate(20.14 42.445)" fill="#ececf0"/><path d="M.3.942,23.608,11.009a.488.488,0,0,0,.642-.257h0a.491.491,0,0,0-.256-.645L.682.04A.488.488,0,0,0,.04.3h0A.491.491,0,0,0,.3.942Z" transform="translate(17.927 47.624)" fill="#ececf0"/><path d="M.3.942,17.816,8.506a.488.488,0,0,0,.642-.257h0A.491.491,0,0,0,18.2,7.6L.682.04A.488.488,0,0,0,.04.3h0A.491.491,0,0,0,.3.942Z" transform="translate(19.429 44.112)" fill="#ececf0"/><path d="M.3.942,14.673,7.151a.488.488,0,0,0,.642-.257h0a.491.491,0,0,0-.256-.645L.682.04A.488.488,0,0,0,.04.3h0A.491.491,0,0,0,.3.942Z" transform="translate(18.68 45.866)" fill="#ececf0"/></g><g transform="translate(0 32.634)"><path d="M1.95,0H0V2.5H1.95Z" transform="translate(15.738 5.225)" fill="#fff"/><path d="M2.5.856h0L1.644,0h0L0,1.651H0l.853.856h0Z" transform="translate(27.935 9.951)" fill="#fff"/><path d="M1.981,2.845h0l.853-.856h0L.853,0h0L0,.856H0Z" transform="translate(3.124 9.94)" fill="#fff"/><path d="M0,1.559H0A1.554,1.554,0,0,0,1.552,3.118h.929A1.554,1.554,0,0,0,4.034,1.559h0A1.554,1.554,0,0,0,2.481,0H1.552A1.554,1.554,0,0,0,0,1.559Z" transform="translate(14.812 2.945)" fill="#fff"/><path d="M.281,1.645l.405.407a.957.957,0,0,0,1.357,0h0a.967.967,0,0,0,0-1.363L1.638.282a.957.957,0,0,0-1.357,0h0A.967.967,0,0,0,.281,1.645Z" transform="translate(29.156 8.994)" fill="#fff"/><path d="M.281,2.052h0a.957.957,0,0,0,1.357,0l.405-.407a.967.967,0,0,0,0-1.363h0a.957.957,0,0,0-1.357,0L.281.689A.967.967,0,0,0,.281,2.052Z" transform="translate(2.086 8.994)" fill="#fff"/><path d="M0,1.559v.833A1.554,1.554,0,0,0,1.552,3.951H5.93A1.554,1.554,0,0,0,7.483,2.392V1.559A1.554,1.554,0,0,0,5.93,0H1.552A1.554,1.554,0,0,0,0,1.559Z" transform="translate(12.989 0.219)" fill="#fff"/><path d="M.281,2.01,2.2,3.933a.957.957,0,0,0,1.357,0l.363-.365a.967.967,0,0,0,0-1.363L2,.282a.957.957,0,0,0-1.357,0L.281.647A.967.967,0,0,0,.281,2.01Z" transform="translate(29.187 7.001)" fill="#fff"/><path d="M.281,3.569l.363.365A.957.957,0,0,0,2,3.933L3.917,2.01a.967.967,0,0,0,0-1.363L3.554.282A.957.957,0,0,0,2.2.282L.281,2.206A.967.967,0,0,0,.281,3.569Z" transform="translate(0.185 7.001)" fill="#fff"/><path d="M29.914,9.654A15.552,15.552,0,1,0,1.184,21.572,15.552,15.552,0,1,0,29.914,9.654Z" transform="translate(1.309 6.889)" fill="#fff"/><path d="M24.639,12.37A12.32,12.32,0,1,0,12.319,24.74,12.332,12.332,0,0,0,24.639,12.37Z" transform="translate(4.539 10.132)" fill="#6200ea" opacity="0.102"/><path d="M20.758,6.607a10.815,10.815,0,1,0-19.89,8.5,10.815,10.815,0,1,0,19.89-8.5Z" transform="translate(6.045 11.645)" fill="#fff"/><g transform="translate(7.647 13.054)"><path d="M0,.146v1.34a.146.146,0,0,0,.145.146h.2a.146.146,0,0,0,.145-.146V.146A.146.146,0,0,0,.34,0h-.2A.146.146,0,0,0,0,.146Z" transform="translate(9.043 0.088)" fill="#b0b1b3"/><path d="M0,.146v1.34a.146.146,0,0,0,.145.146h.2a.146.146,0,0,0,.145-.146V.146A.146.146,0,0,0,.34,0h-.2A.146.146,0,0,0,0,.146Z" transform="translate(9.043 16.92)" fill="#b0b1b3"/><path d="M.071,1.415l.168.1a.144.144,0,0,0,.2-.05l.7-1.144a.145.145,0,0,0-.05-.2L.916.021a.144.144,0,0,0-.2.05l-.7,1.144A.145.145,0,0,0,.071,1.415Z" transform="translate(13.063 1.361)" fill="#b0b1b3"/><path d="M.071,1.415l.164.1a.144.144,0,0,0,.2-.05L1.13.321a.145.145,0,0,0-.05-.2L.916.021a.144.144,0,0,0-.2.05l-.7,1.144a.145.145,0,0,0,.05.2Z" transform="translate(4.353 15.743)" fill="#b0b1b3"/><path d="M.018.882l.1.169a.143.143,0,0,0,.195.054L1.468.437a.144.144,0,0,0,.054-.2l-.1-.169a.143.143,0,0,0-.2-.054L.072.687a.144.144,0,0,0-.054.2Z" transform="translate(15.78 4.566)" fill="#b0b1b3"/><path d="M.018.882l.1.169a.143.143,0,0,0,.195.054L1.468.437a.144.144,0,0,0,.054-.2l-.1-.169a.143.143,0,0,0-.2-.054L.072.687A.144.144,0,0,0,.018.882Z" transform="translate(1.247 12.954)" fill="#b0b1b3"/><path d="M.141.484l1.334,0A.145.145,0,0,0,1.621.346V.15A.145.145,0,0,0,1.48,0L.145,0A.145.145,0,0,0,0,.142v.2A.145.145,0,0,0,.141.484Z" transform="translate(16.854 9.103)" fill="#b0b1b3"/><path d="M.141.484l1.334,0A.145.145,0,0,0,1.621.346V.15A.145.145,0,0,0,1.48,0L.145,0A.145.145,0,0,0,0,.142v.2A.145.145,0,0,0,.141.484Z" transform="translate(0.092 9.049)" fill="#b0b1b3"/><path d="M.072.437l1.155.672a.143.143,0,0,0,.2-.054l.1-.169a.144.144,0,0,0-.054-.2L.313.018a.143.143,0,0,0-.2.054l-.1.169a.144.144,0,0,0,.054.2Z" transform="translate(15.765 12.974)" fill="#b0b1b3"/><path d="M.072.437l1.155.672a.143.143,0,0,0,.2-.054l.1-.169a.144.144,0,0,0-.054-.2L.313.018a.143.143,0,0,0-.2.054l-.1.169A.144.144,0,0,0,.072.437Z" transform="translate(1.259 4.539)" fill="#b0b1b3"/><path d="M.072.437l1.155.672a.143.143,0,0,0,.2-.054l.1-.169a.144.144,0,0,0-.054-.2L.313.018a.143.143,0,0,0-.2.054l-.1.169a.144.144,0,0,0,.054.2Z" transform="translate(15.765 12.974)" fill="#b0b1b3"/><path d="M.072.437l1.155.672a.143.143,0,0,0,.2-.054l.1-.169a.144.144,0,0,0-.054-.2L.313.018a.143.143,0,0,0-.2.054l-.1.169A.144.144,0,0,0,.072.437Z" transform="translate(1.259 4.539)" fill="#b0b1b3"/><path d="M.021.317.7,1.472a.139.139,0,0,0,.195.05l.168-.1a.141.141,0,0,0,.05-.2L.434.071a.139.139,0,0,0-.2-.05l-.168.1A.141.141,0,0,0,.021.317Z" transform="translate(12.96 15.804)" fill="#b0b1b3"/><path d="M.021.317.7,1.472a.139.139,0,0,0,.195.05l.168-.1a.141.141,0,0,0,.05-.2L.434.071a.139.139,0,0,0-.2-.05l-.168.1a.141.141,0,0,0-.05.2Z" transform="translate(4.475 1.288)" fill="#b0b1b3"/><path d="M.711,0a.714.714,0,1,0,.711.714A.711.711,0,0,0,.711,0Z" transform="translate(8.687 8.569)" fill="#b0b1b3"/><path d="M8.014,0,0,4.9Z" transform="translate(7.444 5.682)" fill="none" stroke="#b0b1b3" stroke-linecap="round" stroke-miterlimit="10" stroke-width="1"/></g></g><g transform="translate(44.353)"><path d="M0,3.39v86.9a3.382,3.382,0,0,0,3.376,3.39H69.848a3.382,3.382,0,0,0,3.376-3.39V3.39A3.382,3.382,0,0,0,69.848,0H3.376A3.382,3.382,0,0,0,0,3.39Z" transform="translate(0.141 6.915)" opacity="0.078"/><path d="M73.224,2.43A2.469,2.469,0,0,0,70.72,0H2.5A2.467,2.467,0,0,0,0,2.43V88.066a2.466,2.466,0,0,0,2.5,2.426H70.72a2.466,2.466,0,0,0,2.5-2.426Z" transform="translate(0.138 6.915)" fill="#fff"/><path d="M0,79.642H64.717V0H0Z" transform="translate(4.393 11.975)" fill="#fff"/><g transform="translate(16.059)"><path d="M41.221,3.72A3.714,3.714,0,0,0,37.513,0H3.7A3.713,3.713,0,0,0,0,3.72v6.55H41.221Z" transform="translate(0.08 3.985)" fill="#7864ff"/><path d="M9.152,1.123a5.761,5.761,0,0,0-6.81,9.295,5.761,5.761,0,0,0,6.81-9.295Z" transform="translate(14.944 0.22)" fill="#6000ff"/><path d="M1.759,0A1.766,1.766,0,1,0,3.518,1.766,1.763,1.763,0,0,0,1.759,0Z" transform="translate(18.934 2.457)" fill="#edefc7"/><path d="M0,4.561H41.221V0H0Z" transform="translate(0.08 9.694)" fill="#e0dff7"/></g><path d="M0,.541H0a.54.54,0,0,0,.539.541H43.783a.54.54,0,0,0,.539-.541h0A.54.54,0,0,0,43.783,0H.539A.54.54,0,0,0,0,.541Z" transform="translate(13.478 28.699)" fill="#ececf0"/><path d="M0,.541H0a.54.54,0,0,0,.539.541H28.592a.54.54,0,0,0,.539-.541h0A.54.54,0,0,0,28.592,0H.539A.54.54,0,0,0,0,.541Z" transform="translate(13.478 30.672)" fill="#ececf0"/><path d="M0,.541H0a.54.54,0,0,0,.539.541H21.622a.54.54,0,0,0,.539-.541h0A.54.54,0,0,0,21.622,0H.539A.54.54,0,0,0,0,.541Z" transform="translate(13.478 32.676)" fill="#ececf0"/><path d="M0,.768V.914a.764.764,0,0,0,.765.768h33.67A.764.764,0,0,0,35.2.914V.768A.764.764,0,0,0,34.435,0H.765A.764.764,0,0,0,0,.768Z" transform="translate(22.903 42.063)" fill="#ececf0"/><path d="M0,.768V.914a.764.764,0,0,0,.765.768h33.67A.764.764,0,0,0,35.2.914V.768A.764.764,0,0,0,34.435,0H.765A.764.764,0,0,0,0,.768Z" transform="translate(22.903 50.525)" fill="#ececf0"/><path d="M0,.768V.914a.764.764,0,0,0,.765.768h33.67A.764.764,0,0,0,35.2.914V.768A.764.764,0,0,0,34.435,0H.765A.764.764,0,0,0,0,.768Z" transform="translate(22.903 59.14)" fill="#ececf0"/><path d="M0,.768V.914a.764.764,0,0,0,.765.768h33.67A.764.764,0,0,0,35.2.914V.768A.764.764,0,0,0,34.435,0H.765A.764.764,0,0,0,0,.768Z" transform="translate(22.903 67.172)" fill="#ececf0"/><path d="M6.584,6.611H0V0H6.584V6.61ZM.665.672V5.944h5.25V.672Z" transform="translate(13.478 39.199)" fill="#ececf0"/><path d="M6.584,6.611H0V0H6.584V6.61ZM.665.672V5.944h5.25V.672Z" transform="translate(13.478 47.772)" fill="#ececf0"/><path d="M6.584,6.611H0V0H6.584V6.61ZM.665.668V5.939h5.25V.668Z" transform="translate(13.478 56.338)" fill="#ececf0"/><path d="M6.584,6.611H0V0H6.584V6.61ZM.665.668V5.939h5.25V.668Z" transform="translate(13.478 65.011)" fill="#ececf0"/><path d="M0,0V19.454H9.421C9,19.458.566,9.775,0,0Z" transform="translate(4.393 72.079)" fill="#dddde0"/><path d="M10.626,11.606a17.432,17.432,0,0,1-6.378-3.3A11.691,11.691,0,0,1,0,0V1.271C.566,11.046,9.008,20.805,9.421,20.8a3.094,3.094,0,0,1-.646-1.954c-.05-1.8.91-4.265,1.851-7.245Z" transform="translate(4.393 70.723)" fill="#ececf0"/><path d="M0,0,.482,1.255,3.277.177" transform="translate(102.421 55.098)" fill="none" stroke="#99e86f" stroke-linecap="round" stroke-miterlimit="10" stroke-width="2"/><path d="M0,0,.482,1.255,3.277.177" transform="translate(106.627 45.883)" fill="none" stroke="#99e86f" stroke-linecap="round" stroke-miterlimit="10" stroke-width="2"/><path d="M0,0,.482,1.255,3.277.177" transform="translate(98.215 63.16)" fill="none" stroke="#99e86f" stroke-linecap="round" stroke-miterlimit="10" stroke-width="2"/></g><path d="M44.458,1.428,38.084,4.484l.008.008-.008-.008L4,38.85l0,0L1.78,41.088,1.8,41.1l-.834.837a3.3,3.3,0,1,0,4.657,4.669l.834-.837.019.019L8.7,43.549h0L42.787,9.184l0,0,3.07-6.362.015.015L47.234,0,44.4,1.359Z" transform="translate(9.87 81.128)" fill="#b2b3b5" opacity="0.4"/><g transform="translate(8.794 78.705)"><path d="M10.18,5.638a3.314,3.314,0,0,0,0-4.672h0a3.281,3.281,0,0,0-4.653,0L.962,5.557a3.314,3.314,0,0,0,0,4.672h0a3.281,3.281,0,0,0,4.653,0Z" transform="translate(0.01 36.713)" fill="#fff"/><path d="M4.691,6.945,6.921,4.7,2.229,0,0,2.242Z" transform="translate(1.789 39.172)" fill="#d2d2d2"/><path d="M0,4.342l4.691,4.7L9.058,0Z" transform="translate(38.098 0.472)" fill="#fdfffe"/><path d="M2.837,0,0,1.359,1.472,2.83Z" transform="translate(44.406 0.334)" fill="#543823"/><path d="M4.7,39.065,38.786,4.7,34.087,0,0,34.365Z" transform="translate(4.007 4.814)" fill="#ffd500"/><path d="M2.061,36.427,36.148,2.062,34.087,0,0,34.365Z" transform="translate(5.33 6.131)" fill="#fff" opacity="0.502"/><path d="M.189.2l0-.023" transform="translate(48.45 7.959)" fill="#ececf0"/></g><path d="M0,1.067l.914.983L3.1,0" transform="translate(59.681 41.215)" fill="none" stroke="#99e86f" stroke-linecap="round" stroke-miterlimit="10" stroke-width="2"/><path d="M0,1.067l.914.983L3.1,0" transform="translate(59.681 50.045)" fill="none" stroke="#99e86f" stroke-linecap="round" stroke-miterlimit="10" stroke-width="2"/><path d="M0,1.067l.914.983L3.1,0" transform="translate(59.681 58.492)" fill="none" stroke="#99e86f" stroke-linecap="round" stroke-miterlimit="10" stroke-width="2"/><path d="M0,1.067l.914.983L3.1,0" transform="translate(59.681 66.938)" fill="none" stroke="#99e86f" stroke-linecap="round" stroke-miterlimit="10" stroke-width="2"/></g></svg>